# xmcd
#
# Track frame offsets:
#	150
#	849
#	19321
#	48542
#	73787
#	114731
#	138800
#	157237
#	180414
#	239970
#
# Disc length: 4055 seconds
#
# Revision: 1
# Processed by: cddbd v1.4PL0 Copyright (c) Steve Scherf et al.
# Submitted via: EasyCDDAExtractor 5.1.0
#
DISCID=880fd50a
DTITLE=Fairfield Four - Wreckin' The House (Live At Mt. Hope)
DYEAR=1900
DGENRE=Gospel
TTITLE0=Introduction
TTITLE1=Hallelujah
TTITLE2=Dig A Little Deeper
TTITLE3=Crying In The Chapel
TTITLE4=Talk To The Man
TTITLE5=Swing Low
TTITLE6=Noah
TTITLE7=Can't Beat God's Love
TTITLE8=That's Enough
TTITLE9=Data
EXTD=
EXTT0=
EXTT1=
EXTT2=
EXTT3=
EXTT4=
EXTT5=
EXTT6=
EXTT7=
EXTT8=
EXTT9=
PLAYORDER=
